<svg width="1192" height="416" version="1.1" xmlns="http://www.w3.org/2000/svg" style=""><rect id="backgroundrect" width="100%" height="100%" x="0" y="0" fill="none" stroke="none"/>


<g class="currentLayer" style=""><title>Layer 1</title><g id="#6087b3ff" class="" fill-opacity="1" fill="#6b96c7">
<path fill="#6b96c7" opacity="1.00" d=" M 143.98 36.10 C 158.96 34.81 174.00 35.12 189.02 35.08 C 245.70 35.06 302.38 34.94 359.06 35.10 C 384.16 35.59 409.57 36.10 434.06 42.21 C 438.15 43.44 442.84 44.32 445.62 47.87 C 440.97 64.00 436.45 80.17 431.87 96.33 C 422.63 95.22 413.33 94.79 404.04 94.28 C 324.44 90.30 244.71 90.62 165.04 90.56 C 151.93 90.60 138.16 91.86 126.62 98.64 C 119.66 102.70 114.26 109.36 111.88 117.08 C 110.19 122.20 109.73 127.63 109.77 133.00 C 109.80 182.00 109.76 231.00 109.80 280.00 C 109.86 289.62 112.55 299.62 119.19 306.83 C 123.62 311.91 129.87 314.98 136.26 316.79 C 146.55 319.70 157.34 320.07 167.97 320.00 C 247.34 319.93 326.75 320.08 406.06 316.46 C 418.75 315.79 431.47 315.27 444.09 313.66 C 453.47 326.45 462.78 339.29 472.17 352.07 C 470.09 355.42 466.51 357.28 463.20 359.18 C 455.47 363.56 446.73 365.61 438.14 367.53 C 419.02 371.67 399.50 373.65 379.97 374.50 C 351.33 375.92 322.65 375.40 293.99 375.50 C 251.33 375.50 208.68 375.51 166.02 375.50 C 143.60 375.10 120.81 373.68 99.40 366.50 C 82.02 360.67 65.57 349.72 56.62 333.34 C 46.83 315.24 43.92 294.31 43.63 273.99 C 43.59 231.33 43.63 188.67 43.61 146.01 C 43.50 127.97 45.27 109.62 51.79 92.67 C 57.55 77.37 67.82 63.60 81.60 54.64 C 100.09 42.59 122.30 38.03 143.98 36.10 Z" id="svg_1"/>
<path fill="#6b96c7" opacity="1.00" d=" M 485.35 286.53 C 494.30 286.53 503.24 286.52 512.19 286.53 C 512.19 316.02 512.19 345.51 512.19 375.00 C 503.71 375.00 495.23 375.00 486.75 375.00 C 486.75 350.00 486.74 325.00 486.76 300.00 C 486.73 295.47 485.80 291.02 485.35 286.53 Z" id="svg_2"/>
<path fill="#6b96c7" opacity="1.00" d=" M 617.85 286.53 C 626.32 286.53 634.80 286.53 643.28 286.53 C 643.29 295.74 643.28 304.94 643.28 314.15 C 655.81 312.86 668.43 312.22 681.02 312.62 C 686.93 312.84 693.55 315.00 696.41 320.61 C 699.71 327.62 698.61 335.58 698.81 343.07 C 698.60 350.76 699.82 358.96 696.21 366.09 C 693.38 371.70 687.09 374.61 681.02 374.86 C 668.39 375.33 655.73 374.60 643.17 373.24 C 640.58 372.65 638.66 375.27 636.09 375.00 C 630.01 375.02 623.92 374.98 617.85 375.00 C 617.84 345.51 617.84 316.02 617.85 286.53 M 643.28 331.21 C 643.33 338.81 643.20 346.41 643.33 354.01 C 643.44 355.10 643.34 357.12 645.00 357.03 C 652.30 357.56 659.66 357.23 666.98 357.22 C 669.91 357.41 673.11 355.33 672.91 352.13 C 672.99 346.07 673.08 339.99 672.86 333.94 C 672.87 331.41 670.27 330.17 668.06 330.19 C 659.79 329.86 651.51 330.46 643.28 331.21 Z" id="svg_3"/>
<path fill="#6b96c7" opacity="1.00" d=" M 525.65 312.52 C 534.22 312.48 542.80 312.49 551.38 312.51 C 551.37 325.35 551.38 338.18 551.37 351.02 C 551.28 352.98 551.65 355.29 553.52 356.37 C 556.08 357.83 559.18 357.30 562.01 357.42 C 567.27 357.25 572.57 357.78 577.80 357.00 C 578.52 342.19 577.93 327.33 578.12 312.51 C 586.72 312.49 595.33 312.49 603.94 312.50 C 603.94 333.33 603.93 354.16 603.94 374.99 C 597.96 375.00 591.99 374.99 586.02 375.02 C 583.12 375.33 580.79 373.38 578.33 372.23 C 566.35 374.57 554.06 375.55 541.86 374.77 C 536.90 374.39 531.61 372.57 528.75 368.24 C 526.10 364.02 525.76 358.83 525.66 353.98 C 525.64 340.16 525.66 326.34 525.65 312.52 Z" id="svg_4"/>
</g><g id="#384e67ff" class="" fill-opacity="1" fill="#afbed0">
<path fill="#afbed0" opacity="1.00" d=" M 548.88 128.09 C 562.42 128.09 575.96 128.09 589.50 128.09 C 589.51 142.81 589.49 157.53 589.51 172.25 C 604.94 170.55 620.46 169.72 635.98 169.61 C 644.21 169.59 652.63 169.20 660.61 171.61 C 667.01 173.52 672.81 178.11 675.29 184.42 C 677.78 190.96 678.31 198.04 678.26 204.98 C 678.21 215.98 678.33 226.98 678.19 237.98 C 677.75 246.81 675.51 256.48 668.41 262.40 C 662.62 267.62 654.58 269.19 647.02 269.44 C 627.62 269.75 608.19 268.85 588.91 266.63 C 585.20 265.65 582.64 269.63 579.05 269.50 C 568.99 269.51 558.93 269.50 548.88 269.50 C 548.87 222.36 548.87 175.23 548.88 128.09 M 589.49 199.51 C 589.51 211.00 589.50 222.48 589.49 233.96 C 589.56 235.91 589.46 237.95 590.26 239.78 C 591.40 241.16 593.43 240.93 595.04 241.12 C 605.02 241.22 615.00 241.11 624.99 241.17 C 628.30 241.16 632.04 241.03 634.61 238.63 C 636.73 236.71 637.00 233.69 636.98 231.01 C 636.97 223.02 636.95 215.03 636.98 207.05 C 636.94 204.59 636.97 201.77 635.12 199.90 C 632.92 197.91 629.72 197.87 626.93 197.73 C 614.43 197.57 601.93 198.27 589.49 199.51 Z" id="svg_5"/>
<path fill="#afbed0" opacity="1.00" d=" M 702.83 138.13 C 732.89 138.12 762.96 138.13 793.02 138.12 C 804.03 138.20 815.16 137.60 826.01 139.88 C 835.78 141.82 845.68 146.01 852.01 154.02 C 858.27 161.88 860.27 172.21 860.30 182.04 C 860.30 197.03 860.38 212.03 860.26 227.02 C 860.07 238.51 856.62 250.89 847.32 258.33 C 836.30 267.11 821.60 268.99 807.96 269.25 C 773.66 269.32 739.36 269.27 705.06 269.28 C 705.05 232.19 705.06 195.09 705.06 158.00 C 704.78 151.33 703.50 144.76 702.83 138.13 M 748.55 168.49 C 748.58 191.82 748.55 215.14 748.57 238.47 C 765.35 238.47 782.14 238.47 798.92 238.47 C 803.68 238.47 808.88 237.82 812.55 234.49 C 816.02 231.37 817.02 226.48 817.00 222.00 C 816.99 209.33 817.02 196.66 816.99 184.00 C 817.00 179.35 815.28 174.48 811.60 171.50 C 807.73 168.65 802.69 168.47 798.07 168.46 C 781.56 168.49 765.06 168.44 748.55 168.49 Z" id="svg_6"/>
<path fill="#afbed0" opacity="1.00" d=" M 139.48 138.60 C 155.33 138.59 171.18 138.58 187.03 138.60 C 194.27 162.83 201.53 187.05 208.78 211.28 C 210.91 218.33 212.33 225.60 214.67 232.59 C 215.15 232.54 216.12 232.42 216.60 232.36 C 218.06 226.90 218.92 221.29 220.56 215.88 C 227.97 190.11 235.08 164.24 242.63 138.51 C 259.70 138.70 276.77 138.52 293.84 138.61 C 303.35 169.82 312.34 201.21 322.22 232.30 C 322.74 232.39 323.76 232.57 324.28 232.66 C 332.59 201.25 341.26 169.94 349.78 138.59 C 365.40 138.59 381.01 138.59 396.63 138.59 C 395.44 144.32 395.35 150.36 392.95 155.78 C 378.06 193.67 363.34 231.63 348.44 269.52 C 331.33 269.47 314.23 269.53 297.13 269.49 C 289.45 246.01 281.72 222.55 274.03 199.08 C 272.06 192.41 270.86 185.54 269.00 178.85 C 268.48 178.84 267.44 178.83 266.92 178.82 C 265.01 185.75 263.97 192.90 261.87 199.79 C 254.29 223.02 246.77 246.26 239.20 269.50 C 221.87 269.52 204.54 269.49 187.22 269.51 C 171.28 225.88 155.39 182.24 139.48 138.60 Z" id="svg_7"/>
<path fill="#afbed0" opacity="1.00" d=" M 412.42 177.41 C 419.32 171.14 429.03 169.73 438.00 169.61 C 454.02 169.57 470.04 169.60 486.06 169.59 C 497.19 169.77 509.35 170.40 518.60 177.38 C 525.64 182.57 527.98 191.75 528.42 200.06 C 528.61 210.42 528.45 220.79 528.50 231.15 C 509.64 231.08 490.78 231.35 471.93 230.93 C 462.73 230.77 453.58 229.70 444.40 229.17 C 444.53 232.14 443.98 235.54 445.95 238.07 C 448.04 240.79 451.74 241.33 454.97 241.37 C 475.81 241.50 496.67 240.92 517.43 239.10 C 522.14 246.29 526.71 253.57 531.21 260.89 C 529.25 264.15 525.55 265.57 522.04 266.45 C 511.91 269.02 501.38 269.34 490.98 269.49 C 475.34 269.52 459.70 269.49 444.05 269.50 C 433.32 269.57 421.34 269.54 412.55 262.44 C 405.49 256.94 403.63 247.47 403.21 239.02 C 403.01 227.34 403.18 215.65 403.12 203.96 C 403.07 194.50 404.90 183.90 412.42 177.41 M 446.56 200.45 C 444.11 202.86 444.47 206.56 444.38 209.70 C 458.70 209.65 473.03 209.88 487.34 209.59 C 487.10 206.54 487.41 203.37 486.44 200.43 C 485.45 198.52 483.00 198.37 481.13 198.11 C 473.10 197.47 465.03 197.82 456.99 197.70 C 453.40 197.70 449.26 197.71 446.56 200.45 Z" id="svg_8"/>
<path fill="#afbed0" opacity="1.00" d=" M 884.82 182.85 C 890.22 173.85 901.05 170.11 911.07 169.76 C 924.37 169.38 937.69 169.69 951.00 169.59 C 962.88 169.69 975.10 168.88 986.56 172.63 C 993.34 174.91 999.83 179.49 1002.50 186.37 C 1005.30 192.86 1005.64 200.06 1005.51 207.04 C 1005.49 215.08 1005.51 223.12 1005.50 231.15 C 986.64 231.08 967.79 231.35 948.94 230.93 C 939.73 230.78 930.58 229.70 921.40 229.17 C 921.52 232.12 920.99 235.48 922.90 238.00 C 924.98 240.77 928.70 241.33 931.95 241.37 C 952.79 241.50 973.66 240.92 994.43 239.10 C 999.15 246.28 1003.69 253.57 1008.21 260.87 C 1006.28 264.13 1002.60 265.55 999.10 266.43 C 988.95 269.02 978.40 269.34 967.98 269.49 C 954.00 269.52 940.02 269.49 926.04 269.50 C 916.36 269.44 906.34 270.10 897.08 266.73 C 890.56 264.34 884.81 259.29 882.66 252.57 C 878.85 241.78 880.48 230.18 880.12 218.99 C 880.45 206.90 878.45 193.80 884.82 182.85 M 923.52 200.49 C 921.11 202.91 921.47 206.57 921.37 209.69 C 935.66 209.75 949.95 209.70 964.23 209.72 C 963.78 206.02 965.56 199.69 960.64 198.52 C 952.50 197.22 944.19 197.91 935.97 197.71 C 931.76 197.76 926.76 197.23 923.52 200.49 Z" id="svg_9"/>
<path fill="#afbed0" opacity="1.00" d=" M 1014.22 169.60 C 1029.17 169.59 1044.12 169.59 1059.08 169.60 C 1068.13 193.13 1077.51 216.55 1086.13 240.24 C 1086.64 240.25 1087.64 240.27 1088.14 240.28 C 1096.73 216.56 1106.36 193.23 1115.36 169.66 C 1130.19 169.50 1145.02 169.64 1159.86 169.59 C 1158.07 175.50 1157.40 181.86 1154.23 187.27 C 1140.10 214.66 1126.03 242.08 1111.94 269.49 C 1095.50 269.53 1079.06 269.47 1062.63 269.52 C 1046.45 236.23 1030.34 202.91 1014.22 169.60 Z" id="svg_10"/>
</g></g></svg>