<?xml version="1.0" encoding="UTF-8"?>
<svg xmlns="http://www.w3.org/2000/svg" xmlns:xlink="http://www.w3.org/1999/xlink" width="100pt" height="35pt" viewBox="0 0 100 35" version="1.1">
<g id="surface1">
<path style=" stroke:none;fill-rule:nonzero;fill:rgb(37.647059%,52.941176%,70.196078%);fill-opacity:1;" d="M 12.039062 3.035156 C 13.292969 2.929688 14.550781 2.953125 15.808594 2.953125 C 20.546875 2.949219 25.289062 2.9375 30.027344 2.953125 C 32.128906 2.996094 34.25 3.035156 36.300781 3.550781 C 36.644531 3.652344 37.03125 3.730469 37.265625 4.027344 C 36.878906 5.386719 36.5 6.746094 36.117188 8.105469 C 35.34375 8.011719 34.566406 7.976562 33.789062 7.933594 C 27.128906 7.597656 20.464844 7.625 13.800781 7.617188 C 12.703125 7.621094 11.554688 7.726562 10.585938 8.300781 C 10.007812 8.640625 9.554688 9.199219 9.359375 9.851562 C 9.214844 10.28125 9.175781 10.738281 9.179688 11.1875 C 9.179688 15.3125 9.179688 19.4375 9.179688 23.558594 C 9.1875 24.367188 9.414062 25.210938 9.964844 25.816406 C 10.335938 26.242188 10.859375 26.5 11.394531 26.652344 C 12.257812 26.894531 13.160156 26.929688 14.046875 26.925781 C 20.683594 26.917969 27.324219 26.929688 33.957031 26.625 C 35.019531 26.570312 36.082031 26.527344 37.136719 26.390625 C 37.921875 27.464844 38.699219 28.546875 39.484375 29.621094 C 39.3125 29.902344 39.011719 30.058594 38.734375 30.21875 C 38.089844 30.585938 37.359375 30.761719 36.640625 30.921875 C 35.042969 31.269531 33.410156 31.4375 31.773438 31.507812 C 29.378906 31.628906 26.980469 31.585938 24.585938 31.589844 C 21.019531 31.589844 17.453125 31.59375 13.886719 31.589844 C 12.007812 31.558594 10.101562 31.4375 8.3125 30.835938 C 6.859375 30.34375 5.480469 29.421875 4.734375 28.046875 C 3.914062 26.523438 3.671875 24.761719 3.648438 23.050781 C 3.648438 19.464844 3.648438 15.875 3.648438 12.285156 C 3.636719 10.765625 3.785156 9.222656 4.328125 7.796875 C 4.8125 6.507812 5.671875 5.351562 6.824219 4.59375 C 8.367188 3.582031 10.226562 3.199219 12.039062 3.035156 Z M 12.039062 3.035156 "/>
<path style=" stroke:none;fill-rule:nonzero;fill:rgb(37.647059%,52.941176%,70.196078%);fill-opacity:1;" d="M 40.589844 24.105469 C 41.335938 24.105469 42.085938 24.105469 42.832031 24.105469 C 42.832031 26.589844 42.832031 29.066406 42.832031 31.550781 C 42.125 31.550781 41.414062 31.550781 40.707031 31.550781 C 40.707031 29.449219 40.703125 27.34375 40.707031 25.238281 C 40.703125 24.859375 40.625 24.484375 40.589844 24.105469 Z M 40.589844 24.105469 "/>
<path style=" stroke:none;fill-rule:nonzero;fill:rgb(37.647059%,52.941176%,70.196078%);fill-opacity:1;" d="M 51.667969 24.105469 C 52.375 24.105469 53.085938 24.105469 53.792969 24.105469 C 53.796875 24.882812 53.792969 25.65625 53.792969 26.429688 C 54.84375 26.320312 55.898438 26.269531 56.953125 26.304688 C 57.445312 26.320312 58 26.5 58.238281 26.972656 C 58.511719 27.5625 58.421875 28.234375 58.4375 28.863281 C 58.421875 29.511719 58.523438 30.203125 58.222656 30.800781 C 57.984375 31.269531 57.460938 31.515625 56.953125 31.539062 C 55.894531 31.578125 54.835938 31.515625 53.785156 31.402344 C 53.570312 31.351562 53.40625 31.574219 53.195312 31.550781 C 52.683594 31.550781 52.179688 31.546875 51.667969 31.550781 C 51.667969 29.066406 51.667969 26.589844 51.667969 24.105469 M 53.792969 27.867188 C 53.800781 28.507812 53.789062 29.144531 53.800781 29.785156 C 53.808594 29.875 53.800781 30.046875 53.941406 30.039062 C 54.550781 30.085938 55.167969 30.054688 55.777344 30.054688 C 56.023438 30.070312 56.292969 29.894531 56.273438 29.628906 C 56.277344 29.117188 56.289062 28.605469 56.269531 28.09375 C 56.269531 27.882812 56.054688 27.777344 55.867188 27.78125 C 55.175781 27.753906 54.484375 27.804688 53.792969 27.867188 Z M 53.792969 27.867188 "/>
<path style=" stroke:none;fill-rule:nonzero;fill:rgb(37.647059%,52.941176%,70.196078%);fill-opacity:1;" d="M 43.957031 26.292969 C 44.675781 26.289062 45.390625 26.289062 46.113281 26.292969 C 46.109375 27.371094 46.113281 28.453125 46.109375 29.535156 C 46.101562 29.699219 46.132812 29.890625 46.289062 29.980469 C 46.503906 30.105469 46.765625 30.0625 47 30.070312 C 47.441406 30.054688 47.882812 30.101562 48.320312 30.035156 C 48.378906 28.789062 48.332031 27.539062 48.347656 26.292969 C 49.066406 26.289062 49.785156 26.289062 50.507812 26.292969 C 50.507812 28.046875 50.507812 29.796875 50.507812 31.550781 C 50.003906 31.550781 49.503906 31.550781 49.007812 31.550781 C 48.761719 31.578125 48.570312 31.414062 48.363281 31.316406 C 47.363281 31.515625 46.335938 31.597656 45.3125 31.53125 C 44.898438 31.5 44.457031 31.347656 44.21875 30.980469 C 43.996094 30.628906 43.96875 30.191406 43.960938 29.78125 C 43.957031 28.617188 43.960938 27.457031 43.957031 26.292969 Z M 43.957031 26.292969 "/>
<path style=" stroke:none;fill-rule:nonzero;fill:rgb(21.960784%,30.588235%,40.392157%);fill-opacity:1;" d="M 45.902344 10.777344 C 47.03125 10.777344 48.167969 10.777344 49.296875 10.777344 C 49.296875 12.015625 49.296875 13.253906 49.296875 14.492188 C 50.589844 14.347656 51.886719 14.277344 53.1875 14.273438 C 53.875 14.269531 54.578125 14.234375 55.242188 14.4375 C 55.78125 14.597656 56.265625 14.984375 56.472656 15.515625 C 56.679688 16.066406 56.722656 16.660156 56.722656 17.246094 C 56.71875 18.171875 56.726562 19.097656 56.714844 20.023438 C 56.675781 20.765625 56.492188 21.578125 55.894531 22.078125 C 55.414062 22.515625 54.738281 22.648438 54.109375 22.671875 C 52.488281 22.695312 50.863281 22.621094 49.25 22.433594 C 48.9375 22.351562 48.722656 22.6875 48.421875 22.671875 C 47.582031 22.675781 46.742188 22.671875 45.902344 22.671875 C 45.902344 18.707031 45.902344 14.742188 45.902344 10.777344 M 49.296875 16.785156 C 49.296875 17.75 49.296875 18.71875 49.296875 19.683594 C 49.304688 19.847656 49.292969 20.019531 49.363281 20.175781 C 49.457031 20.289062 49.625 20.273438 49.761719 20.289062 C 50.597656 20.292969 51.429688 20.289062 52.265625 20.289062 C 52.542969 20.289062 52.855469 20.277344 53.070312 20.074219 C 53.246094 19.914062 53.269531 19.664062 53.269531 19.4375 C 53.269531 18.765625 53.265625 18.089844 53.269531 17.417969 C 53.265625 17.214844 53.269531 16.976562 53.113281 16.820312 C 52.929688 16.652344 52.660156 16.648438 52.429688 16.636719 C 51.382812 16.625 50.335938 16.683594 49.296875 16.785156 Z M 49.296875 16.785156 "/>
<path style=" stroke:none;fill-rule:nonzero;fill:rgb(21.960784%,30.588235%,40.392157%);fill-opacity:1;" d="M 58.777344 11.621094 C 61.289062 11.621094 63.804688 11.621094 66.316406 11.621094 C 67.238281 11.628906 68.171875 11.578125 69.078125 11.769531 C 69.894531 11.933594 70.71875 12.285156 71.253906 12.957031 C 71.773438 13.617188 71.941406 14.488281 71.945312 15.316406 C 71.945312 16.578125 71.949219 17.839844 71.941406 19.101562 C 71.925781 20.066406 71.636719 21.109375 70.859375 21.734375 C 69.9375 22.476562 68.707031 22.628906 67.566406 22.652344 C 64.699219 22.65625 61.828125 22.65625 58.960938 22.65625 C 58.960938 19.535156 58.960938 16.414062 58.960938 13.292969 C 58.941406 12.734375 58.832031 12.179688 58.777344 11.621094 M 62.597656 14.175781 C 62.601562 16.140625 62.597656 18.101562 62.601562 20.0625 C 64.003906 20.0625 65.40625 20.0625 66.8125 20.0625 C 67.210938 20.0625 67.644531 20.007812 67.953125 19.726562 C 68.242188 19.46875 68.324219 19.054688 68.324219 18.675781 C 68.324219 17.613281 68.324219 16.546875 68.324219 15.480469 C 68.324219 15.089844 68.179688 14.679688 67.871094 14.429688 C 67.546875 14.191406 67.125 14.175781 66.738281 14.171875 C 65.359375 14.175781 63.980469 14.171875 62.597656 14.175781 Z M 62.597656 14.175781 "/>
<path style=" stroke:none;fill-rule:nonzero;fill:rgb(21.960784%,30.588235%,40.392157%);fill-opacity:1;" d="M 11.664062 11.660156 C 12.988281 11.660156 14.316406 11.660156 15.640625 11.660156 C 16.246094 13.699219 16.851562 15.738281 17.460938 17.777344 C 17.636719 18.371094 17.757812 18.980469 17.953125 19.570312 C 17.992188 19.5625 18.074219 19.554688 18.113281 19.550781 C 18.238281 19.089844 18.308594 18.617188 18.445312 18.160156 C 19.066406 15.996094 19.65625 13.816406 20.292969 11.652344 C 21.71875 11.671875 23.148438 11.65625 24.570312 11.660156 C 25.367188 14.289062 26.121094 16.929688 26.945312 19.542969 C 26.988281 19.550781 27.074219 19.566406 27.117188 19.574219 C 27.8125 16.929688 28.539062 14.296875 29.25 11.660156 C 30.558594 11.660156 31.863281 11.660156 33.167969 11.660156 C 33.070312 12.144531 33.0625 12.648438 32.859375 13.105469 C 31.613281 16.292969 30.382812 19.488281 29.140625 22.675781 C 27.707031 22.671875 26.277344 22.675781 24.847656 22.671875 C 24.207031 20.699219 23.558594 18.722656 22.914062 16.75 C 22.75 16.1875 22.652344 15.609375 22.496094 15.046875 C 22.453125 15.046875 22.363281 15.046875 22.320312 15.046875 C 22.160156 15.628906 22.074219 16.230469 21.898438 16.808594 C 21.265625 18.765625 20.636719 20.71875 20.003906 22.671875 C 18.554688 22.675781 17.105469 22.671875 15.65625 22.675781 C 14.324219 19.003906 12.996094 15.332031 11.664062 11.660156 Z M 11.664062 11.660156 "/>
<path style=" stroke:none;fill-rule:nonzero;fill:rgb(21.960784%,30.588235%,40.392157%);fill-opacity:1;" d="M 34.488281 14.925781 C 35.066406 14.398438 35.878906 14.28125 36.628906 14.273438 C 37.96875 14.265625 39.308594 14.269531 40.648438 14.269531 C 41.578125 14.285156 42.59375 14.335938 43.371094 14.925781 C 43.957031 15.359375 44.152344 16.132812 44.191406 16.832031 C 44.203125 17.703125 44.191406 18.574219 44.195312 19.449219 C 42.621094 19.441406 41.042969 19.464844 39.46875 19.429688 C 38.699219 19.417969 37.929688 19.328125 37.164062 19.28125 C 37.175781 19.53125 37.128906 19.816406 37.292969 20.03125 C 37.46875 20.257812 37.777344 20.304688 38.050781 20.308594 C 39.792969 20.316406 41.535156 20.269531 43.273438 20.117188 C 43.664062 20.722656 44.046875 21.335938 44.425781 21.949219 C 44.261719 22.222656 43.953125 22.34375 43.65625 22.417969 C 42.808594 22.632812 41.929688 22.660156 41.058594 22.671875 C 39.75 22.675781 38.445312 22.671875 37.132812 22.671875 C 36.238281 22.679688 35.238281 22.675781 34.5 22.078125 C 33.910156 21.617188 33.753906 20.820312 33.71875 20.109375 C 33.703125 19.128906 33.714844 18.144531 33.714844 17.160156 C 33.707031 16.363281 33.863281 15.472656 34.488281 14.925781 M 37.34375 16.867188 C 37.140625 17.066406 37.171875 17.378906 37.160156 17.644531 C 38.359375 17.640625 39.558594 17.660156 40.757812 17.632812 C 40.734375 17.375 40.761719 17.113281 40.679688 16.863281 C 40.59375 16.703125 40.390625 16.6875 40.238281 16.667969 C 39.5625 16.613281 38.890625 16.640625 38.214844 16.632812 C 37.914062 16.632812 37.570312 16.632812 37.34375 16.867188 Z M 37.34375 16.867188 "/>
<path style=" stroke:none;fill-rule:nonzero;fill:rgb(21.960784%,30.588235%,40.392157%);fill-opacity:1;" d="M 73.996094 15.382812 C 74.449219 14.625 75.351562 14.3125 76.191406 14.285156 C 77.304688 14.25 78.414062 14.277344 79.527344 14.269531 C 80.523438 14.277344 81.546875 14.210938 82.503906 14.523438 C 83.070312 14.714844 83.613281 15.101562 83.835938 15.679688 C 84.070312 16.226562 84.097656 16.832031 84.089844 17.417969 C 84.085938 18.097656 84.089844 18.769531 84.085938 19.449219 C 82.511719 19.441406 80.933594 19.464844 79.359375 19.429688 C 78.585938 19.417969 77.820312 19.328125 77.050781 19.28125 C 77.066406 19.527344 77.019531 19.8125 77.179688 20.023438 C 77.351562 20.257812 77.664062 20.304688 77.9375 20.308594 C 79.679688 20.316406 81.425781 20.269531 83.164062 20.117188 C 83.554688 20.722656 83.933594 21.335938 84.316406 21.949219 C 84.152344 22.222656 83.84375 22.339844 83.550781 22.414062 C 82.703125 22.632812 81.820312 22.660156 80.949219 22.671875 C 79.78125 22.675781 78.609375 22.671875 77.441406 22.671875 C 76.632812 22.671875 75.792969 22.722656 75.019531 22.441406 C 74.476562 22.242188 73.992188 21.816406 73.8125 21.25 C 73.496094 20.34375 73.632812 19.367188 73.601562 18.425781 C 73.628906 17.40625 73.460938 16.308594 73.996094 15.382812 M 77.230469 16.871094 C 77.03125 17.070312 77.058594 17.378906 77.050781 17.644531 C 78.246094 17.644531 79.441406 17.644531 80.632812 17.644531 C 80.597656 17.332031 80.746094 16.800781 80.335938 16.703125 C 79.65625 16.59375 78.960938 16.652344 78.273438 16.632812 C 77.921875 16.640625 77.5 16.59375 77.230469 16.871094 Z M 77.230469 16.871094 "/>
<path style=" stroke:none;fill-rule:nonzero;fill:rgb(21.960784%,30.588235%,40.392157%);fill-opacity:1;" d="M 84.816406 14.269531 C 86.066406 14.269531 87.316406 14.269531 88.566406 14.269531 C 89.324219 16.246094 90.109375 18.222656 90.828125 20.210938 C 90.871094 20.210938 90.957031 20.214844 91 20.214844 C 91.714844 18.222656 92.523438 16.257812 93.273438 14.273438 C 94.511719 14.261719 95.753906 14.273438 96.996094 14.269531 C 96.847656 14.765625 96.789062 15.300781 96.523438 15.757812 C 95.34375 18.058594 94.167969 20.367188 92.988281 22.671875 C 91.613281 22.675781 90.238281 22.671875 88.863281 22.675781 C 87.511719 19.875 86.164062 17.070312 84.816406 14.269531 Z M 84.816406 14.269531 "/>
</g>
</svg>
