<?xml version="1.0" encoding="UTF-8" standalone="no"?>
<!DOCTYPE svg PUBLIC "-//W3C//DTD SVG 1.1//EN" "http://www.w3.org/Graphics/SVG/1.1/DTD/svg11.dtd">
<svg width="100%" height="100%" viewBox="0 0 1871 1604" version="1.1" xmlns="http://www.w3.org/2000/svg" xmlns:xlink="http://www.w3.org/1999/xlink" xml:space="preserve" xmlns:serif="http://www.serif.com/" style="fill-rule:evenodd;clip-rule:evenodd;stroke-linejoin:round;stroke-miterlimit:2;">
    <g transform="matrix(-3.12154,0,0,3.12154,1627.07,2.88576)">
        <g id="arrow-left.svg">
            <g transform="matrix(1,0,0,1,-3.09911,0.349428)">
                <path d="M424,297L137.6,297L96,256L137.59,215L424,215C437.3,215 448,226 448,239.63L448,272.45C448.002,272.56 448.002,272.671 448.002,272.781C448.002,285.985 437.204,296.881 424,297Z" style="fill:rgb(56,78,102);fill-opacity:0.4;fill-rule:nonzero;"/>
            </g>
            <path d="M201.69,473.48L200.98,472.77L7,273.44C-2.328,263.806 -2.328,248.294 7,238.66L201,39.23C205.409,34.615 211.521,32.002 217.904,32.002C223.944,32.002 229.756,34.343 234.11,38.53C234.35,38.75 234.58,38.99 234.81,39.23L256.94,62C266.346,71.817 266.167,87.579 256.54,97.18L95.81,256L256.54,414.8C266.266,424.355 266.446,440.206 256.94,449.98L234.79,472.76C230.38,477.378 224.266,479.994 217.881,479.994C211.848,479.994 206.042,477.658 201.69,473.48Z" style="fill:rgb(56,78,102);fill-rule:nonzero;"/>
        </g>
    </g>
</svg>
